. 
  
http://www.torrenting.com/        :     Greatest Movie Tracker on The Net!!!
 
http://www.Torrenting.com          :     Once & For all ;)


               www . Torrenting . Com 

(((((((((((((= Enjoy No RAR releases =))))))))))))))))))))


...................................NFO:....................................

.[img]http://img8.imageshack.us/img8/9954/jumpingthebroombdboxart.jpg[/img]

[color=blue][size=5][b]Jumping.the.Broom.2011.BDRip.XVID.AC3.HQ.Hive-CM8[/b][/size][/color]


[b]Thx Hive

CM8 Doing It Right The First Time :D

Source Bluray

Video: 720x400 @bitrate 1800 2pass
Audio: English DTS to AC3 5.1 @448
Sample: yes included[/b]


[url]http://www.imdb.com/title/tt1640484/[/url]


General
Complete name                    : Jumping.the.Broom.2011.BDRip.XVID.AC3.HQ.Hive-CM8.avi
Format                           : AVI
Format/Info                      : Audio Video Interleave
File size                        : 1.77 GiB
Duration                         : 1h 52mn
Overall bit rate                 : 2 256 Kbps
Writing application              : Nandub v1.0rc2
Writing library                  : Nandub build 1853/release

Video
ID                               : 0
Format                           : MPEG-4 Visual
Format profile                   : Advanced Simple@L5
Format settings, BVOP            : 1
Format settings, QPel            : Yes
Format settings, GMC             : No warppoints
Format settings, Matrix          : Default (H.263)
Muxing mode                      : Packed bitstream
Codec ID                         : XVID
Codec ID/Hint                    : XviD
Duration                         : 1h 52mn
Bit rate                         : 1 799 Kbps
Width                            : 720 pixels
Height                           : 400 pixels
Display aspect ratio             : 16:9
Frame rate                       : 23.976 fps
Color space                      : YUV
Chroma subsampling               : 4:2:0
Bit depth                        : 8 bits
Scan type                        : Progressive
Compression mode                 : Lossy
Bits/(Pixel*Frame)               : 0.261
Stream size                      : 1.41 GiB (80%)
Writing library                  : XviD 1.2.1 (UTC 2008-12-04)

Audio
ID                               : 1
Format                           : AC-3
Format/Info                      : Audio Coding 3
Mode extension                   : CM (complete main)
Codec ID                         : 2000
Duration                         : 1h 52mn
Bit rate mode                    : Constant
Bit rate                         : 448 Kbps
Channel(s)                       : 6 channels
Channel positions                : Front: L C R, Side: L R, LFE
Sampling rate                    : 48.0 KHz
Bit depth                        : 16 bits
Compression mode                 : Lossy
Stream size                      : 360 MiB (20%)
Alignment                        : Split accross interleaves
Interleave, duration             : 42 ms (1.00 video frame)
Interleave, preload duration     : 500 ms


Angela Bassett	... 	Mrs. Watson
Paula Patton	... 	Sabrina Watson
Laz Alonso	... 	Jason Taylor
Loretta Devine	... 	Mrs. Taylor
Meagan Good	... 	Blythe
Tasha Smith	... 	Shonda
Julie Bowen	... 	Amy


Two very different families converge on Martha's Vineyard one weekend for a wedding.


[img]http://img850.imageshack.us/img850/1882/32907425.png[/img]
[img]http://img24.imageshack.us/img24/8714/jujuqm.png[/img]
[img]http://img638.imageshack.us/img638/3027/jujuju.png[/img]
[img]http://img163.imageshack.us/img163/8620/jujujuju.png[/img]
[img]http://img577.imageshack.us/img577/4166/jujujujuju.png[/img]
[img]http://img842.imageshack.us/img842/2955/jujujujujujujjuu.png[/img]
[img]http://img146.imageshack.us/img146/278/jujujujujujuju.png[/img]
[img]http://img19.imageshack.us/img19/614/jujujujujujujujjujuu.png[/img]
[img]http://img577.imageshack.us/img577/5303/jujujujujujujujjuu.png[/img]
[img]http://img26.imageshack.us/img26/3019/jujujujujujujujujjujuu.png[/img]




Greetz

ViSiON,SANTi,MAGNET,THC,T0XiC,LKRG,IMAGiNE,WBZ,FLAWL3SS,NOVA
D2U,Vik,Rapeseed,SAFC,goldadvance,MEMORY100,KaN1vE,Unevano,
Pinnz,Wayne,cedrict wink,Mr Hive and all P2P groups 
Great Work Guys :D

FYS


CM8@hushmail.com